<svg width="1405" height="459" xmlns="http://www.w3.org/2000/svg" version="1.0" preserveAspectRatio="xMidYMid meet">
 <g>
  <title>Layer 1</title>
  <g stroke="#fff" fill="#619E73" id="svg_9">
   <path stroke="#fff" fill="#69c11b" d="m86.8,28.09999c-6.7,1.6 -16.1,7 -21.3,12.3c-5.6,5.8 -10.7,15.4 -12.4,23.4c-0.8,3.7 -1.1,57.8 -1.1,184.3l0,178.9l2.3,-0.5c1.2,-0.3 32.8,-5.7 70.2,-12c37.4,-6.2 96.3,-16.2 130.9,-22l62.8,-10.6l517.90001,0.1l517.90001,0l0,-157l0,-157l-503.20001,-0.2l-503.30001,-0.3l-121.9,-20.3c-121.1,-20.1 -129.7,-21.3 -138.8,-19.1zm90.4,72.9c34.9,4 54.9,24.8 63.4,65.9c4.8,23.4 5.1,63.2 0.8,89.1c-5.6,32.9 -18.3,54.3 -38,63.9c-7.5,3.6 -7.5,3.7 -2.9,13.8c3,6.6 6.1,8.6 14.1,9.1l6.4,0.4l0,12.4c0,10.9 -0.2,12.5 -1.7,13.2c-1,0.3 -8.5,0.7 -16.8,0.7c-14.4,0 -15.2,-0.1 -20.7,-2.8c-3.2,-1.6 -7.4,-4.7 -9.3,-7c-4.6,-5.3 -10,-16.5 -12.3,-25.3c-2.1,-8.1 -2.7,-9.4 -5,-9.4c-2.9,0 -15.4,-6.5 -20.2,-10.4c-11,-9.3 -19.9,-24.4 -24.5,-41.8c-10,-37.6 -9.5,-93 1.1,-125.5c9,-27.5 25.7,-43.1 49.4,-46.2c3.6,-0.5 6.7,-0.9 7,-1c0.3,0 4.4,0.4 9.2,0.9zm111.1,14.6l7.7,0.7l0,19.2l0,19.2l5.3,0.7c2.8,0.3 7,0.6 9.2,0.6c8.7,0.1 8.5,-0.3 8.5,13.3l0,12l-11.6,-0.7l-11.5,-0.7l0.3,50c0.3,48.9 0.3,50 2.4,52.8c3.2,4.2 10.8,4.2 21.7,-0.2c1.6,-0.7 1.7,0.2 1.7,10.4l0,11.2l-3.7,1.6c-2.1,0.8 -8.1,2.6 -13.3,4c-18,4.6 -30.3,2.2 -37.7,-7.5c-6.6,-8.7 -6.6,-8.8 -7.2,-69.2l-0.6,-54.5l-4.7,-0.3l-4.8,-0.3l0,-13.1l0,-13.1l7.3,0.6l7.3,0.5l4.4,-18.6c2.4,-10.3 4.5,-19.1 4.8,-19.5c0.2,-0.5 1.8,-0.6 3.6,-0.3c1.7,0.3 6.6,0.8 10.9,1.2zm698.70001,41.3c6.5,2 14.4,7.4 17.7,12.3c3.9,5.9 5.3,12.3 5.3,23.8l0,9l-15.5,0l-15.5,0l0,-10.4c0,-12.9 -0.9,-15.6 -4.9,-15.6c-4.9,0 -5.3,2.9 -4.9,44.2c0.3,32.7 0.5,36.9 2,38.4c2.5,2.5 6.4,1.1 7.7,-2.7c0.6,-1.8 1.1,-7.9 1.1,-13.5l0,-10.4l-3,0l-3,0l0,-9.5l0,-9.5l18,0l18,0l0,32.5l0,32.5l-9.8,0l-9.9,0l-1.2,-4.2l-1.3,-4.1l-2.5,3.2c-3.9,5 -9.1,7.1 -17.5,7.1c-9.1,0 -15.5,-2.8 -21.4,-9.2c-7.8,-8.4 -7.9,-9.2 -7.9,-52.3c0,-42.8 0.2,-44.7 6.7,-52c4,-4.5 12.3,-9.3 18.7,-10.6c4.5,-1 18.4,-0.4 23.1,1zm-590.00001,49.1l0,48l10,0l10,0l0,12l0,12l-25.5,0l-25.5,0l0,-60l0,-60l15.5,0l15.5,0l0,48zm344.80001,-40.3l-0.3,7.8l-13,0.1c-18.6,0.1 -17.5,0.6 -17.5,-8.2l0,-7.4l15.5,0l15.6,0l-0.3,7.7zm390.00001,0l-0.3,7.8l-15.2,0l-15.3,0l0,-7.8l0,-7.7l15.5,0l15.6,0l-0.3,7.7zm79.2,52.3l0,60l-15.5,0l-15.5,0l0,-3.1l0,-3l-3.3,2.5c-3.9,3 -10.8,5.6 -14.6,5.6c-8.4,0 -16.9,-6.1 -19,-13.5c-0.7,-2.6 -1.1,-16.3 -1.1,-38.5c0.1,-36.1 0.4,-39.5 4.7,-44.2c6.3,-7.1 22.5,-7.7 30.3,-1.2l3,2.6l0,-13.6l0,-13.6l15.5,0l15.5,0l0,60zm-736.10001,-36c12.1,6.5 15.2,13.2 15.9,33.7l0.4,14.3l-19.7,0l-19.8,0l0.5,14.5c0.6,14.9 1.3,17.5 4.9,17.5c4,0 4.9,-2.6 4.9,-14.1l0,-10.9l14.6,0l14.6,0l-0.4,10.7c-0.4,11.7 -1.9,15.9 -7.7,22.6c-7.2,8.1 -21.4,11.4 -36,8.3c-9.1,-1.9 -15.2,-5.4 -18.9,-10.9c-5.4,-7.8 -5.7,-9.9 -5.7,-38.7c0,-30.9 0.7,-34.9 7.6,-42c6.9,-7 13.2,-9 27.9,-8.6c9.8,0.2 11,0.5 16.9,3.6zm75.4,-2.1c5.1,1.6 11.5,7.6 14.1,13.1c2,4.3 2.1,6.4 2.4,44.7l0.3,40.3l-14.5,0l-14.6,0l0,-4l0,-4.1l-3.7,4c-9.2,9.6 -26.5,7.2 -32.3,-4.4c-2.2,-4.5 -2.5,-6.2 -2.5,-17.5c0.1,-19.3 1,-20.5 23.2,-29.6c6,-2.4 11.6,-5.4 12.6,-6.5c1.2,-1.5 1.7,-3.9 1.7,-8.4c0,-8.8 -1.2,-11.5 -5,-11.5c-3.6,0 -3.9,1 -4.2,13l-0.3,8.5l-14,0l-14,0l0.3,-9c0.1,-5 0.8,-10.6 1.4,-12.5c2.3,-7.6 9.7,-14.1 18.6,-16.7c5.6,-1.5 24.8,-1.1 30.5,0.6zm74.5,15.3l-0.3,17.3l-5.4,0.7c-6.4,0.7 -9.8,3.6 -11.1,9.4c-0.5,2.1 -1,15.5 -1,29.6l0,25.8l-15,0l-15,0l0,-49.5l0,-49.6l14.8,0.3l14.7,0.3l-0.3,5.9l-0.3,6l3,-4.1c4.2,-5.8 9.1,-9.1 13.9,-9.2l2.2,-0.1l-0.2,17.2zm66.2,-15.2c4.5,2.3 7.3,6 8.9,11.5c0.7,2.6 1.1,18.2 1.1,45.2l0,41.3l-15,0l-15,0l0,-39.1c0,-25 -0.4,-39.7 -1,-41c-1.4,-2.5 -6.5,-2.6 -7.5,-0.2c-0.4,1 -1,19.5 -1.3,41l-0.4,39.3l-14.9,0l-14.9,0l0,-49.5l0,-49.5l15.5,0l15.5,0l0,4.2l0,4.2l3.5,-3.4c4.8,-4.6 7.9,-5.8 15.3,-5.9c4.4,-0.1 7.4,0.5 10.2,1.9zm123.3,1.3c7.4,5.6 7.2,4.1 7.5,52.9l0.3,43.8l-15.1,0l-15,0l0,-39.4c0,-21.7 -0.3,-40.1 -0.6,-41c-0.4,-1 -1.8,-1.6 -3.9,-1.6c-2.1,0 -3.5,0.6 -3.9,1.6c-0.3,0.9 -0.6,19.3 -0.6,41l0,39.4l-15.5,0l-15.5,0l0.2,-49.3l0.3,-49.2l15.3,-0.3l15.2,-0.3l0,4.7l0,4.6l2.6,-3.2c4.6,-5.4 8.9,-7.1 17.5,-6.8c6.5,0.3 8.1,0.7 11.2,3.1zm47.5,-1.4c2,1 4.8,3.1 6.2,4.6l2.5,2.7l1.1,-3.9l1.1,-3.8l13.9,0l13.9,0l0.3,45c0.1,30.4 -0.1,46.8 -0.9,50.4c-0.9,4.5 -2,6.3 -6.3,10.6c-6.3,6.3 -12.4,8.4 -25.6,9.2c-21.9,1.2 -33.7,-4.9 -35.9,-18.6l-0.8,-5.1l14.6,0l14.7,0l1.1,3c0.8,2.2 1.8,3 3.5,3c4.4,0 5.2,-1.4 5.6,-9.7l0.4,-7.7l-2.3,1.7c-4.7,3.5 -8.9,4.7 -15.6,4.7c-11,-0.1 -17.4,-4 -20.5,-12.8c-1.9,-5.3 -1.8,-57.2 0,-62.5c1.8,-4.9 5.8,-9.6 9.7,-11.3c4.6,-2 14.9,-1.8 19.3,0.5zm409.70001,1c6.3,2.8 10.9,7.2 14.3,13.6c2.4,4.6 2.6,6.2 3,20.2l0.4,15.3l-19.1,0l-19.1,0l0,14.1c0,7.7 0.5,14.9 1,16c1.4,2.6 5.5,2.4 7.4,-0.3c1.2,-1.7 1.6,-4.8 1.6,-12.5l0,-10.3l14,0l14,0l-0.1,10.2c-0.1,11.4 -0.9,14.5 -5.6,21.1c-2.3,3.3 -4.9,5.4 -9.9,7.8c-6.5,3.2 -7.4,3.4 -17.4,3.3c-12.3,-0.1 -19.8,-2.5 -26,-8.1c-6.6,-5.8 -8.1,-10.7 -9.3,-28.6c-1.2,-18.4 0.1,-41.9 2.7,-47.9c3.3,-7.7 10.4,-13.5 19.3,-15.8c6.8,-1.7 23.2,-0.6 28.8,1.9zm-529.50001,47.6l0,49.5l-15.5,0l-15.5,0l0,-49.5l0,-49.5l15.5,0l15.5,0l0,49.5zm309,-10.6c0,22.9 0.4,40 1,41.5c1,2.8 4.7,3.5 6.8,1.4c0.9,-0.9 1.2,-11.5 1.2,-41.5l0,-40.3l15,0l15,0l0,49.5l0,49.5l-15,0l-15,0l0,-3.6l0,-3.6l-3.9,3.5c-6.2,5.6 -12.8,6.9 -21.8,4.2c-6.6,-2 -10.7,-6.5 -12.2,-13.5c-0.7,-3.2 -1.1,-19.9 -1.1,-45.5l0,-40.5l15,0l15,0l0,38.9zm81,10.6l0,49.5l-15.5,0l-15.5,0l0,-49.5l0,-49.5l15.5,0l15.5,0l0,49.5z" id="svg_2"/>
   <path stroke="#fff" fill="#69c11b" d="m170.5,131.49999c-5.2,1.8 -10.9,8.2 -13.5,15.1c-8.5,22.9 -8.7,102.8 -0.3,128.9c4.8,15.1 11.2,21.5 21.3,21.5c6.3,0 9.7,-1.7 14.4,-7.1c9,-10.6 12.6,-32.8 12.6,-77.7c0,-43 -3.6,-63.9 -13,-74.6c-1.8,-2 -4.5,-4.3 -5.9,-5.1c-4.3,-2.2 -11.2,-2.6 -15.6,-1z" id="svg_3"/>
   <path stroke="#fff" fill="#69c11b" d="m1172.60002,197.5c-1.1,2.9 -0.7,60.5 0.4,62.6c1.2,2.2 4.3,2.5 5.9,0.5c0.8,-0.9 1.1,-10.4 0.9,-32.7l-0.3,-31.4l-3.1,-0.3c-2.2,-0.2 -3.3,0.2 -3.8,1.3z" id="svg_4"/>
   <path stroke="#fff" fill="#69c11b" d="m453.70001,196.7c-0.3,0.5 -0.8,4.5 -1.1,9l-0.7,8.3l4.5,0l4.6,0l0,-7.1c0,-3.9 -0.5,-7.9 -1,-9c-1,-1.8 -5.4,-2.7 -6.3,-1.2z" id="svg_5"/>
   <path stroke="#fff" fill="#69c11b" d="m533.30001,234.4c-3.9,3.3 -5.3,7.8 -5.3,17.3c0,7.6 1.3,10.3 5,10.3c3.3,0 4.1,-3.3 3.8,-17.1l-0.3,-13.2l-3.2,2.7z" id="svg_6"/>
   <path stroke="#fff" fill="#69c11b" d="m862.30001,198.7c-0.4,1.5 -0.8,12.8 -0.8,25c0,19.7 0.2,22.4 1.7,23.9c1.4,1.5 2.2,1.6 4.3,0.6l2.5,-1.2l-0.2,-25.2l-0.3,-25.3l-3.2,-0.3c-2.8,-0.3 -3.3,0.1 -4,2.5z" id="svg_7"/>
   <path stroke="#fff" fill="#69c11b" d="m1251.60002,197.5c-0.3,0.9 -0.6,5 -0.6,9.1l0,7.4l4,0l4.1,0l-0.3,-8.8l-0.3,-8.7l-3.1,-0.3c-2.2,-0.2 -3.3,0.2 -3.8,1.3z" id="svg_8"/>
  </g>
 </g>

</svg>